<mxfile host="app.diagrams.net" agent="Mozilla/5.0 (X11; Linux x86_64; rv:139.0) Gecko/20100101 Firefox/139.0" version="28.0.6">
  <diagram name="Page-1" id="I8FKV2D8U9zj6HJmRKNh">
    <mxGraphModel grid="1" page="1" gridSize="10" guides="1" tooltips="1" connect="1" arrows="1" fold="1" pageScale="1" pageWidth="850" pageHeight="1100" math="0" shadow="0">
      <root>
        <mxCell id="0" />
        <mxCell id="1" parent="0" />
        <mxCell id="y2gwotJgyjSCMUtLcQ7J-1" value="ทบทวนสัญลักษณ์" style="swimlane;fontFamily=Sarabun;fontSource=https%3A%2F%2Ffonts.googleapis.com%2Fcss%3Ffamily%3DSarabun;" vertex="1" parent="1">
          <mxGeometry x="-720" y="20" width="640" height="290" as="geometry" />
        </mxCell>
        <mxCell id="y2gwotJgyjSCMUtLcQ7J-2" value="&lt;font data-font-src=&quot;https://fonts.googleapis.com/css?family=Sarabun&quot; face=&quot;Sarabun&quot;&gt;เริ่มต้น&lt;/font&gt;" style="ellipse;whiteSpace=wrap;html=1;" vertex="1" parent="y2gwotJgyjSCMUtLcQ7J-1">
          <mxGeometry x="20" y="40" width="130" height="30" as="geometry" />
        </mxCell>
        <mxCell id="y2gwotJgyjSCMUtLcQ7J-3" value="" style="endArrow=classic;html=1;rounded=0;" edge="1" parent="y2gwotJgyjSCMUtLcQ7J-1">
          <mxGeometry width="50" height="50" relative="1" as="geometry">
            <mxPoint x="84.5" y="70" as="sourcePoint" />
            <mxPoint x="84.5" y="120" as="targetPoint" />
          </mxGeometry>
        </mxCell>
        <mxCell id="y2gwotJgyjSCMUtLcQ7J-4" value="&lt;font face=&quot;Sarabun&quot;&gt;สิ้นสุด&lt;/font&gt;" style="ellipse;whiteSpace=wrap;html=1;" vertex="1" parent="y2gwotJgyjSCMUtLcQ7J-1">
          <mxGeometry x="150" y="90" width="130" height="30" as="geometry" />
        </mxCell>
        <mxCell id="y2gwotJgyjSCMUtLcQ7J-5" value="" style="endArrow=classic;html=1;rounded=0;" edge="1" parent="y2gwotJgyjSCMUtLcQ7J-1">
          <mxGeometry width="50" height="50" relative="1" as="geometry">
            <mxPoint x="214.5" y="40" as="sourcePoint" />
            <mxPoint x="214.5" y="90" as="targetPoint" />
          </mxGeometry>
        </mxCell>
        <mxCell id="y2gwotJgyjSCMUtLcQ7J-6" value="กระบวนการ" style="rounded=0;whiteSpace=wrap;html=1;fontFamily=Sarabun;fontSource=https%3A%2F%2Ffonts.googleapis.com%2Fcss%3Ffamily%3DSarabun;" vertex="1" parent="y2gwotJgyjSCMUtLcQ7J-1">
          <mxGeometry x="320" y="70" width="120" height="30" as="geometry" />
        </mxCell>
        <mxCell id="y2gwotJgyjSCMUtLcQ7J-7" value="" style="endArrow=classic;html=1;rounded=0;" edge="1" parent="y2gwotJgyjSCMUtLcQ7J-1">
          <mxGeometry width="50" height="50" relative="1" as="geometry">
            <mxPoint x="379" y="40" as="sourcePoint" />
            <mxPoint x="379.5" y="70" as="targetPoint" />
          </mxGeometry>
        </mxCell>
        <mxCell id="y2gwotJgyjSCMUtLcQ7J-8" value="" style="endArrow=classic;html=1;rounded=0;" edge="1" parent="y2gwotJgyjSCMUtLcQ7J-1">
          <mxGeometry width="50" height="50" relative="1" as="geometry">
            <mxPoint x="379.75" y="100" as="sourcePoint" />
            <mxPoint x="380.25" y="130" as="targetPoint" />
          </mxGeometry>
        </mxCell>
        <mxCell id="y2gwotJgyjSCMUtLcQ7J-9" value="ประโยคเงื่อนไข" style="rhombus;whiteSpace=wrap;html=1;fontFamily=Sarabun;fontSource=https%3A%2F%2Ffonts.googleapis.com%2Fcss%3Ffamily%3DSarabun;" vertex="1" parent="y2gwotJgyjSCMUtLcQ7J-1">
          <mxGeometry x="490" y="60" width="100" height="60" as="geometry" />
        </mxCell>
        <mxCell id="y2gwotJgyjSCMUtLcQ7J-10" value="" style="endArrow=classic;html=1;rounded=0;" edge="1" parent="y2gwotJgyjSCMUtLcQ7J-1">
          <mxGeometry width="50" height="50" relative="1" as="geometry">
            <mxPoint x="539.71" y="30" as="sourcePoint" />
            <mxPoint x="540.21" y="60" as="targetPoint" />
          </mxGeometry>
        </mxCell>
        <mxCell id="y2gwotJgyjSCMUtLcQ7J-11" value="" style="endArrow=classic;html=1;rounded=0;" edge="1" parent="y2gwotJgyjSCMUtLcQ7J-1">
          <mxGeometry width="50" height="50" relative="1" as="geometry">
            <mxPoint x="539.71" y="120" as="sourcePoint" />
            <mxPoint x="540" y="175" as="targetPoint" />
          </mxGeometry>
        </mxCell>
        <mxCell id="y2gwotJgyjSCMUtLcQ7J-12" value="จริง" style="edgeLabel;html=1;align=center;verticalAlign=middle;resizable=0;points=[];fontFamily=Sarabun;fontSource=https%3A%2F%2Ffonts.googleapis.com%2Fcss%3Ffamily%3DSarabun;" vertex="1" connectable="0" parent="y2gwotJgyjSCMUtLcQ7J-11">
          <mxGeometry x="-0.4142" y="-1" relative="1" as="geometry">
            <mxPoint as="offset" />
          </mxGeometry>
        </mxCell>
        <mxCell id="y2gwotJgyjSCMUtLcQ7J-13" value="" style="endArrow=classic;html=1;rounded=0;exitX=1;exitY=0.5;exitDx=0;exitDy=0;" edge="1" parent="y2gwotJgyjSCMUtLcQ7J-1" source="y2gwotJgyjSCMUtLcQ7J-9">
          <mxGeometry width="50" height="50" relative="1" as="geometry">
            <mxPoint x="620" y="95" as="sourcePoint" />
            <mxPoint x="610" y="175" as="targetPoint" />
            <Array as="points">
              <mxPoint x="610" y="90" />
            </Array>
          </mxGeometry>
        </mxCell>
        <mxCell id="y2gwotJgyjSCMUtLcQ7J-14" value="&lt;font data-font-src=&quot;https://fonts.googleapis.com/css?family=Sarabun&quot; face=&quot;Sarabun&quot;&gt;เท็จ&lt;/font&gt;" style="edgeLabel;html=1;align=center;verticalAlign=middle;resizable=0;points=[];" vertex="1" connectable="0" parent="y2gwotJgyjSCMUtLcQ7J-13">
          <mxGeometry x="-0.0019" y="-2" relative="1" as="geometry">
            <mxPoint as="offset" />
          </mxGeometry>
        </mxCell>
        <mxCell id="y2gwotJgyjSCMUtLcQ7J-15" value="&lt;font data-font-src=&quot;https://fonts.googleapis.com/css?family=Sarabun&quot; face=&quot;Sarabun&quot;&gt;ฟังก์ชัน/โมดูล&lt;/font&gt;" style="shape=process;whiteSpace=wrap;html=1;backgroundOutline=1;" vertex="1" parent="y2gwotJgyjSCMUtLcQ7J-1">
          <mxGeometry x="25" y="180" width="120" height="30" as="geometry" />
        </mxCell>
        <mxCell id="y2gwotJgyjSCMUtLcQ7J-16" value="" style="endArrow=classic;html=1;rounded=0;" edge="1" parent="y2gwotJgyjSCMUtLcQ7J-1">
          <mxGeometry width="50" height="50" relative="1" as="geometry">
            <mxPoint x="84.70999999999998" y="150" as="sourcePoint" />
            <mxPoint x="85.20999999999998" y="180" as="targetPoint" />
          </mxGeometry>
        </mxCell>
        <mxCell id="y2gwotJgyjSCMUtLcQ7J-17" value="" style="endArrow=classic;html=1;rounded=0;" edge="1" parent="y2gwotJgyjSCMUtLcQ7J-1">
          <mxGeometry width="50" height="50" relative="1" as="geometry">
            <mxPoint x="84.70999999999998" y="210" as="sourcePoint" />
            <mxPoint x="85.20999999999998" y="240" as="targetPoint" />
          </mxGeometry>
        </mxCell>
        <mxCell id="y2gwotJgyjSCMUtLcQ7J-18" value="" style="strokeWidth=2;html=1;shape=mxgraph.flowchart.start_2;whiteSpace=wrap;" vertex="1" parent="y2gwotJgyjSCMUtLcQ7J-1">
          <mxGeometry x="205" y="185" width="20" height="20" as="geometry" />
        </mxCell>
        <mxCell id="y2gwotJgyjSCMUtLcQ7J-19" value="" style="endArrow=classic;html=1;rounded=0;" edge="1" parent="y2gwotJgyjSCMUtLcQ7J-1">
          <mxGeometry width="50" height="50" relative="1" as="geometry">
            <mxPoint x="214.70999999999998" y="155" as="sourcePoint" />
            <mxPoint x="215.20999999999998" y="185" as="targetPoint" />
          </mxGeometry>
        </mxCell>
        <mxCell id="y2gwotJgyjSCMUtLcQ7J-20" value="" style="endArrow=classic;html=1;rounded=0;entryX=0;entryY=0.5;entryDx=0;entryDy=0;entryPerimeter=0;" edge="1" parent="y2gwotJgyjSCMUtLcQ7J-1" target="y2gwotJgyjSCMUtLcQ7J-18">
          <mxGeometry width="50" height="50" relative="1" as="geometry">
            <mxPoint x="189.99999999999997" y="155" as="sourcePoint" />
            <mxPoint x="190.49999999999997" y="185" as="targetPoint" />
            <Array as="points">
              <mxPoint x="190" y="180" />
            </Array>
          </mxGeometry>
        </mxCell>
        <mxCell id="y2gwotJgyjSCMUtLcQ7J-21" value="" style="endArrow=classic;html=1;rounded=0;entryX=1;entryY=0.5;entryDx=0;entryDy=0;entryPerimeter=0;" edge="1" parent="y2gwotJgyjSCMUtLcQ7J-1" target="y2gwotJgyjSCMUtLcQ7J-18">
          <mxGeometry width="50" height="50" relative="1" as="geometry">
            <mxPoint x="239.99999999999997" y="155" as="sourcePoint" />
            <mxPoint x="240.49999999999997" y="185" as="targetPoint" />
            <Array as="points">
              <mxPoint x="240" y="180" />
            </Array>
          </mxGeometry>
        </mxCell>
        <mxCell id="y2gwotJgyjSCMUtLcQ7J-22" value="" style="endArrow=classic;html=1;rounded=0;" edge="1" parent="y2gwotJgyjSCMUtLcQ7J-1">
          <mxGeometry width="50" height="50" relative="1" as="geometry">
            <mxPoint x="214.70999999999998" y="205" as="sourcePoint" />
            <mxPoint x="215.20999999999998" y="235" as="targetPoint" />
          </mxGeometry>
        </mxCell>
        <mxCell id="y2gwotJgyjSCMUtLcQ7J-23" value="&lt;font data-font-src=&quot;https://fonts.googleapis.com/css?family=Sarabun&quot; face=&quot;Sarabun&quot;&gt;ตัวเชื่อม&lt;/font&gt;" style="text;html=1;align=center;verticalAlign=middle;resizable=0;points=[];autosize=1;strokeColor=none;fillColor=none;" vertex="1" parent="y2gwotJgyjSCMUtLcQ7J-1">
          <mxGeometry x="220" y="190" width="60" height="30" as="geometry" />
        </mxCell>
        <mxCell id="y2gwotJgyjSCMUtLcQ7J-24" value="" style="endArrow=classic;html=1;rounded=0;" edge="1" parent="y2gwotJgyjSCMUtLcQ7J-1">
          <mxGeometry width="50" height="50" relative="1" as="geometry">
            <mxPoint x="353.71" y="165" as="sourcePoint" />
            <mxPoint x="354.21" y="195" as="targetPoint" />
          </mxGeometry>
        </mxCell>
        <mxCell id="y2gwotJgyjSCMUtLcQ7J-25" value="" style="verticalLabelPosition=bottom;verticalAlign=top;html=1;shape=offPageConnector;rounded=0;size=0.5;" vertex="1" parent="y2gwotJgyjSCMUtLcQ7J-1">
          <mxGeometry x="339" y="195" width="30" height="30" as="geometry" />
        </mxCell>
        <mxCell id="y2gwotJgyjSCMUtLcQ7J-26" value="" style="endArrow=classic;html=1;rounded=0;" edge="1" parent="y2gwotJgyjSCMUtLcQ7J-1">
          <mxGeometry width="50" height="50" relative="1" as="geometry">
            <mxPoint x="405.71" y="195" as="sourcePoint" />
            <mxPoint x="406.21" y="225" as="targetPoint" />
          </mxGeometry>
        </mxCell>
        <mxCell id="y2gwotJgyjSCMUtLcQ7J-27" value="" style="verticalLabelPosition=bottom;verticalAlign=top;html=1;shape=offPageConnector;rounded=0;size=0.5;" vertex="1" parent="y2gwotJgyjSCMUtLcQ7J-1">
          <mxGeometry x="391" y="165" width="30" height="30" as="geometry" />
        </mxCell>
        <mxCell id="y2gwotJgyjSCMUtLcQ7J-28" value="หน้าต่อไป" style="text;html=1;align=center;verticalAlign=middle;resizable=0;points=[];autosize=1;strokeColor=none;fillColor=none;fontFamily=Sarabun;fontSource=https%3A%2F%2Ffonts.googleapis.com%2Fcss%3Ffamily%3DSarabun;" vertex="1" parent="y2gwotJgyjSCMUtLcQ7J-1">
          <mxGeometry x="345" y="220" width="70" height="30" as="geometry" />
        </mxCell>
        <mxCell id="y2gwotJgyjSCMUtLcQ7J-29" value="ก" style="text;html=1;align=center;verticalAlign=middle;resizable=0;points=[];autosize=1;strokeColor=none;fillColor=none;fontFamily=Sarabun;fontSource=https%3A%2F%2Ffonts.googleapis.com%2Fcss%3Ffamily%3DSarabun;" vertex="1" parent="y2gwotJgyjSCMUtLcQ7J-1">
          <mxGeometry x="339" y="190" width="30" height="30" as="geometry" />
        </mxCell>
        <mxCell id="y2gwotJgyjSCMUtLcQ7J-30" value="ก" style="text;html=1;align=center;verticalAlign=middle;resizable=0;points=[];autosize=1;strokeColor=none;fillColor=none;fontFamily=Sarabun;fontSource=https%3A%2F%2Ffonts.googleapis.com%2Fcss%3Ffamily%3DSarabun;" vertex="1" parent="y2gwotJgyjSCMUtLcQ7J-1">
          <mxGeometry x="391" y="160" width="30" height="30" as="geometry" />
        </mxCell>
        <mxCell id="y2gwotJgyjSCMUtLcQ7J-31" value="แสดงผล/รับค่า" style="shape=parallelogram;perimeter=parallelogramPerimeter;whiteSpace=wrap;html=1;fixedSize=1;fontFamily=Sarabun;fontSource=https%3A%2F%2Ffonts.googleapis.com%2Fcss%3Ffamily%3DSarabun;" vertex="1" parent="y2gwotJgyjSCMUtLcQ7J-1">
          <mxGeometry x="450" y="210" width="120" height="30" as="geometry" />
        </mxCell>
        <mxCell id="y2gwotJgyjSCMUtLcQ7J-32" value="" style="endArrow=classic;html=1;rounded=0;" edge="1" parent="y2gwotJgyjSCMUtLcQ7J-1">
          <mxGeometry width="50" height="50" relative="1" as="geometry">
            <mxPoint x="509.71" y="180" as="sourcePoint" />
            <mxPoint x="510.21" y="210" as="targetPoint" />
          </mxGeometry>
        </mxCell>
        <mxCell id="y2gwotJgyjSCMUtLcQ7J-33" value="" style="endArrow=classic;html=1;rounded=0;" edge="1" parent="y2gwotJgyjSCMUtLcQ7J-1">
          <mxGeometry width="50" height="50" relative="1" as="geometry">
            <mxPoint x="509.71" y="240" as="sourcePoint" />
            <mxPoint x="510.21" y="270" as="targetPoint" />
          </mxGeometry>
        </mxCell>
        <mxCell id="y2gwotJgyjSCMUtLcQ7J-34" value="แก้ไขโจทย์ปัญหา" style="swimlane;fontFamily=Sarabun;fontSource=https%3A%2F%2Ffonts.googleapis.com%2Fcss%3Ffamily%3DSarabun;" vertex="1" parent="1">
          <mxGeometry x="-720" y="640" width="640" height="820" as="geometry" />
        </mxCell>
        <mxCell id="y2gwotJgyjSCMUtLcQ7J-35" value="&lt;font data-font-src=&quot;https://fonts.googleapis.com/css?family=Sarabun&quot; face=&quot;Sarabun&quot;&gt;เริ่มต้น&lt;/font&gt;" style="ellipse;whiteSpace=wrap;html=1;" vertex="1" parent="y2gwotJgyjSCMUtLcQ7J-34">
          <mxGeometry x="255" y="40" width="130" height="30" as="geometry" />
        </mxCell>
        <mxCell id="y2gwotJgyjSCMUtLcQ7J-36" value="" style="endArrow=classic;html=1;rounded=0;" edge="1" parent="y2gwotJgyjSCMUtLcQ7J-34">
          <mxGeometry width="50" height="50" relative="1" as="geometry">
            <mxPoint x="319.40999999999997" y="70" as="sourcePoint" />
            <mxPoint x="319.40999999999997" y="120" as="targetPoint" />
          </mxGeometry>
        </mxCell>
        <mxCell id="y2gwotJgyjSCMUtLcQ7J-37" value="แสดงรายการและราคา" style="rounded=0;whiteSpace=wrap;html=1;fontFamily=Sarabun;fontSource=https%3A%2F%2Ffonts.googleapis.com%2Fcss%3Ffamily%3DSarabun;" vertex="1" parent="y2gwotJgyjSCMUtLcQ7J-34">
          <mxGeometry x="265" y="120" width="120" height="30" as="geometry" />
        </mxCell>
        <mxCell id="y2gwotJgyjSCMUtLcQ7J-38" value="" style="endArrow=classic;html=1;rounded=0;" edge="1" parent="y2gwotJgyjSCMUtLcQ7J-34">
          <mxGeometry width="50" height="50" relative="1" as="geometry">
            <mxPoint x="319.40999999999997" y="150" as="sourcePoint" />
            <mxPoint x="319.90999999999997" y="180" as="targetPoint" />
          </mxGeometry>
        </mxCell>
        <mxCell id="y2gwotJgyjSCMUtLcQ7J-39" value="ลูกค้าใส่เงิน&lt;div&gt;(เหรียญ/บัตร)&lt;/div&gt;" style="rounded=0;whiteSpace=wrap;html=1;" vertex="1" parent="y2gwotJgyjSCMUtLcQ7J-34">
          <mxGeometry x="262.5" y="180" width="115" height="30" as="geometry" />
        </mxCell>
        <mxCell id="y2gwotJgyjSCMUtLcQ7J-40" value="ลูกค้าเลือกสินค้าได้หลายชิ้น" style="rounded=0;whiteSpace=wrap;html=1;" vertex="1" parent="y2gwotJgyjSCMUtLcQ7J-34">
          <mxGeometry x="257.5" y="260" width="120" height="40" as="geometry" />
        </mxCell>
        <mxCell id="y2gwotJgyjSCMUtLcQ7J-41" value="คำนวณยอด&lt;div&gt;รวมราคาสินค้า&lt;/div&gt;" style="rhombus;whiteSpace=wrap;html=1;" vertex="1" parent="y2gwotJgyjSCMUtLcQ7J-34">
          <mxGeometry x="262.5" y="380" width="110" height="80" as="geometry" />
        </mxCell>
        <mxCell id="y2gwotJgyjSCMUtLcQ7J-42" value="" style="endArrow=classic;html=1;rounded=0;entryX=0.5;entryY=0;entryDx=0;entryDy=0;exitX=0.5;exitY=1;exitDx=0;exitDy=0;" edge="1" parent="y2gwotJgyjSCMUtLcQ7J-34" source="y2gwotJgyjSCMUtLcQ7J-40" target="y2gwotJgyjSCMUtLcQ7J-41">
          <mxGeometry width="50" height="50" relative="1" as="geometry">
            <mxPoint x="250" y="270" as="sourcePoint" />
            <mxPoint x="300" y="220" as="targetPoint" />
          </mxGeometry>
        </mxCell>
        <mxCell id="y2gwotJgyjSCMUtLcQ7J-43" value="หักยอดเงิน&lt;div&gt;+ จ่ายสินค้า&lt;/div&gt;" style="rounded=0;whiteSpace=wrap;html=1;" vertex="1" parent="y2gwotJgyjSCMUtLcQ7J-34">
          <mxGeometry x="120" y="470" width="90" height="50" as="geometry" />
        </mxCell>
        <mxCell id="y2gwotJgyjSCMUtLcQ7J-44" value="&lt;strong data-end=&quot;891&quot; data-start=&quot;862&quot;&gt;เงินลูกค้าเพียงพอหรือไม่&lt;/strong&gt;" style="rhombus;whiteSpace=wrap;html=1;" vertex="1" parent="y2gwotJgyjSCMUtLcQ7J-34">
          <mxGeometry x="440" y="300" width="80" height="80" as="geometry" />
        </mxCell>
        <mxCell id="y2gwotJgyjSCMUtLcQ7J-45" value="" style="endArrow=classic;startArrow=classic;html=1;rounded=0;exitX=0.5;exitY=0;exitDx=0;exitDy=0;entryX=0;entryY=0.5;entryDx=0;entryDy=0;" edge="1" parent="y2gwotJgyjSCMUtLcQ7J-34" source="y2gwotJgyjSCMUtLcQ7J-43" target="y2gwotJgyjSCMUtLcQ7J-41">
          <mxGeometry width="50" height="50" relative="1" as="geometry">
            <mxPoint x="250" y="270" as="sourcePoint" />
            <mxPoint x="320" y="320" as="targetPoint" />
            <Array as="points">
              <mxPoint x="170" y="420" />
            </Array>
          </mxGeometry>
        </mxCell>
        <mxCell id="y2gwotJgyjSCMUtLcQ7J-46" value="ใช่" style="text;html=1;align=center;verticalAlign=middle;whiteSpace=wrap;rounded=0;" vertex="1" parent="y2gwotJgyjSCMUtLcQ7J-34">
          <mxGeometry x="370" y="310" width="60" height="30" as="geometry" />
        </mxCell>
        <mxCell id="y2gwotJgyjSCMUtLcQ7J-47" value="มีเพียงพอ" style="rounded=0;whiteSpace=wrap;html=1;" vertex="1" parent="y2gwotJgyjSCMUtLcQ7J-34">
          <mxGeometry x="430" y="440" width="90" height="30" as="geometry" />
        </mxCell>
        <mxCell id="y2gwotJgyjSCMUtLcQ7J-48" value="" style="endArrow=classic;html=1;rounded=0;entryX=1;entryY=0.5;entryDx=0;entryDy=0;exitX=0;exitY=0.5;exitDx=0;exitDy=0;" edge="1" parent="y2gwotJgyjSCMUtLcQ7J-34" source="y2gwotJgyjSCMUtLcQ7J-47" target="y2gwotJgyjSCMUtLcQ7J-41">
          <mxGeometry width="50" height="50" relative="1" as="geometry">
            <mxPoint x="250" y="490" as="sourcePoint" />
            <mxPoint x="300" y="440" as="targetPoint" />
          </mxGeometry>
        </mxCell>
        <mxCell id="y2gwotJgyjSCMUtLcQ7J-49" value="ไม่พอ" style="rounded=0;whiteSpace=wrap;html=1;" vertex="1" parent="y2gwotJgyjSCMUtLcQ7J-34">
          <mxGeometry x="445" y="220" width="70" height="40" as="geometry" />
        </mxCell>
        <mxCell id="y2gwotJgyjSCMUtLcQ7J-50" value="" style="endArrow=classic;html=1;rounded=0;entryX=1;entryY=0.5;entryDx=0;entryDy=0;exitX=0.5;exitY=0;exitDx=0;exitDy=0;" edge="1" parent="y2gwotJgyjSCMUtLcQ7J-34" source="y2gwotJgyjSCMUtLcQ7J-49" target="y2gwotJgyjSCMUtLcQ7J-39">
          <mxGeometry width="50" height="50" relative="1" as="geometry">
            <mxPoint x="480" y="200" as="sourcePoint" />
            <mxPoint x="300" y="440" as="targetPoint" />
            <Array as="points">
              <mxPoint x="475" y="190" />
            </Array>
          </mxGeometry>
        </mxCell>
        <mxCell id="y2gwotJgyjSCMUtLcQ7J-51" value="" style="endArrow=classic;html=1;rounded=0;entryX=0.5;entryY=1;entryDx=0;entryDy=0;exitX=0.5;exitY=0;exitDx=0;exitDy=0;" edge="1" parent="y2gwotJgyjSCMUtLcQ7J-34" source="y2gwotJgyjSCMUtLcQ7J-44" target="y2gwotJgyjSCMUtLcQ7J-49">
          <mxGeometry width="50" height="50" relative="1" as="geometry">
            <mxPoint x="250" y="490" as="sourcePoint" />
            <mxPoint x="300" y="440" as="targetPoint" />
          </mxGeometry>
        </mxCell>
        <mxCell id="y2gwotJgyjSCMUtLcQ7J-52" value="&lt;p data-pm-slice=&quot;1 1 []&quot;&gt;รายการสินค้าที่ซื้อยอดรวมเงินทอน (เหรียญ/ธนบัตร)ยอดคงเหลือในตู้แยกตามประเภทเงิน&lt;/p&gt;" style="rounded=0;whiteSpace=wrap;html=1;" vertex="1" parent="y2gwotJgyjSCMUtLcQ7J-34">
          <mxGeometry x="257.5" y="540" width="122.5" height="100" as="geometry" />
        </mxCell>
        <mxCell id="y2gwotJgyjSCMUtLcQ7J-53" value="" style="endArrow=classic;html=1;rounded=0;exitX=0.5;exitY=1;exitDx=0;exitDy=0;" edge="1" parent="y2gwotJgyjSCMUtLcQ7J-34" source="y2gwotJgyjSCMUtLcQ7J-41" target="y2gwotJgyjSCMUtLcQ7J-52">
          <mxGeometry width="50" height="50" relative="1" as="geometry">
            <mxPoint x="250" y="600" as="sourcePoint" />
            <mxPoint x="318" y="560" as="targetPoint" />
          </mxGeometry>
        </mxCell>
        <mxCell id="y2gwotJgyjSCMUtLcQ7J-54" value="&lt;font face=&quot;Sarabun&quot;&gt;สิ้นสุด&lt;/font&gt;" style="ellipse;whiteSpace=wrap;html=1;" vertex="1" parent="y2gwotJgyjSCMUtLcQ7J-34">
          <mxGeometry x="250" y="690" width="130" height="30" as="geometry" />
        </mxCell>
        <mxCell id="y2gwotJgyjSCMUtLcQ7J-55" value="" style="endArrow=classic;html=1;rounded=0;" edge="1" parent="y2gwotJgyjSCMUtLcQ7J-34">
          <mxGeometry width="50" height="50" relative="1" as="geometry">
            <mxPoint x="314.5" y="640" as="sourcePoint" />
            <mxPoint x="314.5" y="690" as="targetPoint" />
          </mxGeometry>
        </mxCell>
        <mxCell id="y2gwotJgyjSCMUtLcQ7J-56" value="&lt;font data-font-src=&quot;https://fonts.googleapis.com/css?family=Sarabun&quot; face=&quot;Sarabun&quot;&gt;โจทย์ปัญหา&lt;/font&gt;" style="swimlane;whiteSpace=wrap;html=1;" vertex="1" parent="1">
          <mxGeometry x="-720" y="320" width="640" height="240" as="geometry" />
        </mxCell>
        <mxCell id="y2gwotJgyjSCMUtLcQ7J-57" value="&lt;font data-font-src=&quot;https://fonts.googleapis.com/css?family=Sarabun&quot; face=&quot;Sarabun&quot; style=&quot;font-size: 14px;&quot;&gt;จงเขียน Flowchart เพื่อแสดงขั้นตอนการทำงาน ของเครื่องขายน้ำอัตโนมัติที่ชื่อว่า &quot;ตะพาบลอย&quot;&lt;br&gt;โดยจะต้องมีสินค้าดังนี้&lt;br&gt;&lt;u&gt;ประเภทน้ำ&lt;span style=&quot;white-space: pre;&quot;&gt;&#x9;&lt;/span&gt;&lt;span style=&quot;white-space: pre;&quot;&gt;&#x9;&lt;/span&gt;&lt;span style=&quot;white-space: pre;&quot;&gt;&#x9;&lt;/span&gt;&lt;span style=&quot;white-space: pre;&quot;&gt;&#x9;&lt;/span&gt;&lt;span style=&quot;white-space: pre;&quot;&gt;&#x9;&lt;/span&gt;&lt;span style=&quot;white-space: pre;&quot;&gt;&#x9;&lt;span style=&quot;white-space: pre;&quot;&gt;&#x9;&lt;/span&gt;ข&lt;/span&gt;นม&lt;/u&gt;&lt;br&gt;&lt;span style=&quot;white-space: pre;&quot;&gt;&#x9;&lt;/span&gt;- โค้ก กระป๋องละ 10 บาท&lt;span style=&quot;white-space: pre;&quot;&gt;&#x9;&lt;/span&gt;&lt;span style=&quot;white-space: pre;&quot;&gt;&#x9;&lt;/span&gt;&lt;span style=&quot;white-space: pre;&quot;&gt;&#x9;&lt;/span&gt;&lt;span style=&quot;white-space: pre;&quot;&gt;&#x9;&lt;/span&gt;- เมล็ดทานตะวัน 13 บาท&lt;br&gt;&lt;span style=&quot;white-space: pre;&quot;&gt;&#x9;&lt;/span&gt;- น้ำเขียว กระป๋องละ 12 บาท&lt;span style=&quot;white-space: pre;&quot;&gt;&#x9;&lt;/span&gt;&lt;span style=&quot;white-space: pre;&quot;&gt;&#x9;&lt;/span&gt;&lt;span style=&quot;white-space: pre;&quot;&gt;&#x9;&lt;/span&gt;- ถั่วแปบ 20 บาท&lt;br&gt;&lt;span style=&quot;white-space: pre;&quot;&gt;&#x9;&lt;/span&gt;- อเมริกาโน่ 30 บาท&lt;span style=&quot;white-space: pre;&quot;&gt;&#x9;&lt;/span&gt;&lt;span style=&quot;white-space: pre;&quot;&gt;&#x9;&lt;/span&gt;&lt;span style=&quot;white-space: pre;&quot;&gt;&#x9;&lt;/span&gt;&lt;span style=&quot;white-space: pre;&quot;&gt;&#x9;&lt;/span&gt;&lt;span style=&quot;white-space: pre;&quot;&gt;&#x9;&lt;/span&gt;- จิ้นส้มหมก 15 บาท&lt;br&gt;&lt;span style=&quot;white-space: pre;&quot;&gt;&#x9;&lt;/span&gt;- ลาเต้ หวานเจี๊ยบ 35 บาท&lt;span style=&quot;white-space: pre;&quot;&gt;&#x9;&lt;/span&gt;&lt;br&gt;&lt;br&gt;&lt;u&gt;สิ่งที่ระบบควรจะทำได้&lt;/u&gt;&lt;br&gt;&lt;span style=&quot;white-space: pre;&quot;&gt;&#x9;&lt;/span&gt;- ลูกค้าเลือกสินค้า, ระบบจะต้องรวมยอดขาย และรวมรายการสินค้าทั้งหมดที่ลูกค้าเลือก&lt;br&gt;&lt;span style=&quot;white-space: pre;&quot;&gt;&#x9;&lt;/span&gt;- สรุปยอดว่าเหลือเงินในตู้อีกเท่าไหร่ เหลือเหรียญอะไรบ้าง? ธนบัตรอะไรบ้าง? อย่างละเท่าไหร่?&lt;br&gt;&lt;br&gt;&lt;br&gt;&lt;/font&gt;" style="text;html=1;align=left;verticalAlign=middle;resizable=0;points=[];autosize=1;strokeColor=none;fillColor=none;fontSize=14;" vertex="1" parent="y2gwotJgyjSCMUtLcQ7J-56">
          <mxGeometry x="25" y="30" width="580" height="240" as="geometry" />
        </mxCell>
        <mxCell id="y2gwotJgyjSCMUtLcQ7J-58" value="" style="endArrow=classic;html=1;rounded=0;exitX=0.5;exitY=1;exitDx=0;exitDy=0;" edge="1" parent="1" source="y2gwotJgyjSCMUtLcQ7J-39">
          <mxGeometry width="50" height="50" relative="1" as="geometry">
            <mxPoint x="-470" y="910" as="sourcePoint" />
            <mxPoint x="-400" y="900" as="targetPoint" />
          </mxGeometry>
        </mxCell>
        <mxCell id="y2gwotJgyjSCMUtLcQ7J-59" value="" style="endArrow=none;html=1;rounded=0;entryX=0;entryY=0.5;entryDx=0;entryDy=0;" edge="1" parent="1" target="y2gwotJgyjSCMUtLcQ7J-44">
          <mxGeometry width="50" height="50" relative="1" as="geometry">
            <mxPoint x="-400" y="980" as="sourcePoint" />
            <mxPoint x="-420" y="860" as="targetPoint" />
          </mxGeometry>
        </mxCell>
        <mxCell id="y2gwotJgyjSCMUtLcQ7J-60" value="" style="endArrow=classic;html=1;rounded=0;exitX=0.5;exitY=1;exitDx=0;exitDy=0;" edge="1" parent="1" source="y2gwotJgyjSCMUtLcQ7J-44">
          <mxGeometry width="50" height="50" relative="1" as="geometry">
            <mxPoint x="-470" y="1130" as="sourcePoint" />
            <mxPoint x="-240" y="1080" as="targetPoint" />
          </mxGeometry>
        </mxCell>
        <mxCell id="y2gwotJgyjSCMUtLcQ7J-61" value="ทบทวนสัญลักษณ์" style="swimlane;fontFamily=Sarabun;fontSource=https%3A%2F%2Ffonts.googleapis.com%2Fcss%3Ffamily%3DSarabun;" vertex="1" parent="1">
          <mxGeometry x="210" y="60" width="640" height="290" as="geometry" />
        </mxCell>
        <mxCell id="y2gwotJgyjSCMUtLcQ7J-62" value="&lt;font data-font-src=&quot;https://fonts.googleapis.com/css?family=Sarabun&quot; face=&quot;Sarabun&quot;&gt;เริ่มต้น&lt;/font&gt;" style="ellipse;whiteSpace=wrap;html=1;" vertex="1" parent="y2gwotJgyjSCMUtLcQ7J-61">
          <mxGeometry x="20" y="40" width="130" height="30" as="geometry" />
        </mxCell>
        <mxCell id="y2gwotJgyjSCMUtLcQ7J-63" value="" style="endArrow=classic;html=1;rounded=0;" edge="1" parent="y2gwotJgyjSCMUtLcQ7J-61">
          <mxGeometry width="50" height="50" relative="1" as="geometry">
            <mxPoint x="84.5" y="70" as="sourcePoint" />
            <mxPoint x="84.5" y="120" as="targetPoint" />
          </mxGeometry>
        </mxCell>
        <mxCell id="y2gwotJgyjSCMUtLcQ7J-64" value="&lt;font face=&quot;Sarabun&quot;&gt;สิ้นสุด&lt;/font&gt;" style="ellipse;whiteSpace=wrap;html=1;" vertex="1" parent="y2gwotJgyjSCMUtLcQ7J-61">
          <mxGeometry x="150" y="90" width="130" height="30" as="geometry" />
        </mxCell>
        <mxCell id="y2gwotJgyjSCMUtLcQ7J-65" value="" style="endArrow=classic;html=1;rounded=0;" edge="1" parent="y2gwotJgyjSCMUtLcQ7J-61">
          <mxGeometry width="50" height="50" relative="1" as="geometry">
            <mxPoint x="214.5" y="40" as="sourcePoint" />
            <mxPoint x="214.5" y="90" as="targetPoint" />
          </mxGeometry>
        </mxCell>
        <mxCell id="y2gwotJgyjSCMUtLcQ7J-66" value="กระบวนการ" style="rounded=0;whiteSpace=wrap;html=1;fontFamily=Sarabun;fontSource=https%3A%2F%2Ffonts.googleapis.com%2Fcss%3Ffamily%3DSarabun;" vertex="1" parent="y2gwotJgyjSCMUtLcQ7J-61">
          <mxGeometry x="320" y="70" width="120" height="30" as="geometry" />
        </mxCell>
        <mxCell id="y2gwotJgyjSCMUtLcQ7J-67" value="" style="endArrow=classic;html=1;rounded=0;" edge="1" parent="y2gwotJgyjSCMUtLcQ7J-61">
          <mxGeometry width="50" height="50" relative="1" as="geometry">
            <mxPoint x="379" y="40" as="sourcePoint" />
            <mxPoint x="379.5" y="70" as="targetPoint" />
          </mxGeometry>
        </mxCell>
        <mxCell id="y2gwotJgyjSCMUtLcQ7J-68" value="" style="endArrow=classic;html=1;rounded=0;" edge="1" parent="y2gwotJgyjSCMUtLcQ7J-61">
          <mxGeometry width="50" height="50" relative="1" as="geometry">
            <mxPoint x="379.75" y="100" as="sourcePoint" />
            <mxPoint x="380.25" y="130" as="targetPoint" />
          </mxGeometry>
        </mxCell>
        <mxCell id="y2gwotJgyjSCMUtLcQ7J-69" value="ประโยคเงื่อนไข" style="rhombus;whiteSpace=wrap;html=1;fontFamily=Sarabun;fontSource=https%3A%2F%2Ffonts.googleapis.com%2Fcss%3Ffamily%3DSarabun;" vertex="1" parent="y2gwotJgyjSCMUtLcQ7J-61">
          <mxGeometry x="490" y="60" width="100" height="60" as="geometry" />
        </mxCell>
        <mxCell id="y2gwotJgyjSCMUtLcQ7J-70" value="" style="endArrow=classic;html=1;rounded=0;" edge="1" parent="y2gwotJgyjSCMUtLcQ7J-61">
          <mxGeometry width="50" height="50" relative="1" as="geometry">
            <mxPoint x="539.71" y="30" as="sourcePoint" />
            <mxPoint x="540.21" y="60" as="targetPoint" />
          </mxGeometry>
        </mxCell>
        <mxCell id="y2gwotJgyjSCMUtLcQ7J-71" value="" style="endArrow=classic;html=1;rounded=0;" edge="1" parent="y2gwotJgyjSCMUtLcQ7J-61">
          <mxGeometry width="50" height="50" relative="1" as="geometry">
            <mxPoint x="539.71" y="120" as="sourcePoint" />
            <mxPoint x="540" y="175" as="targetPoint" />
          </mxGeometry>
        </mxCell>
        <mxCell id="y2gwotJgyjSCMUtLcQ7J-72" value="จริง" style="edgeLabel;html=1;align=center;verticalAlign=middle;resizable=0;points=[];fontFamily=Sarabun;fontSource=https%3A%2F%2Ffonts.googleapis.com%2Fcss%3Ffamily%3DSarabun;" vertex="1" connectable="0" parent="y2gwotJgyjSCMUtLcQ7J-71">
          <mxGeometry x="-0.4142" y="-1" relative="1" as="geometry">
            <mxPoint as="offset" />
          </mxGeometry>
        </mxCell>
        <mxCell id="y2gwotJgyjSCMUtLcQ7J-73" value="" style="endArrow=classic;html=1;rounded=0;exitX=1;exitY=0.5;exitDx=0;exitDy=0;" edge="1" parent="y2gwotJgyjSCMUtLcQ7J-61" source="y2gwotJgyjSCMUtLcQ7J-69">
          <mxGeometry width="50" height="50" relative="1" as="geometry">
            <mxPoint x="620" y="95" as="sourcePoint" />
            <mxPoint x="610" y="175" as="targetPoint" />
            <Array as="points">
              <mxPoint x="610" y="90" />
            </Array>
          </mxGeometry>
        </mxCell>
        <mxCell id="y2gwotJgyjSCMUtLcQ7J-74" value="&lt;font data-font-src=&quot;https://fonts.googleapis.com/css?family=Sarabun&quot; face=&quot;Sarabun&quot;&gt;เท็จ&lt;/font&gt;" style="edgeLabel;html=1;align=center;verticalAlign=middle;resizable=0;points=[];" vertex="1" connectable="0" parent="y2gwotJgyjSCMUtLcQ7J-73">
          <mxGeometry x="-0.0019" y="-2" relative="1" as="geometry">
            <mxPoint as="offset" />
          </mxGeometry>
        </mxCell>
        <mxCell id="y2gwotJgyjSCMUtLcQ7J-75" value="&lt;font data-font-src=&quot;https://fonts.googleapis.com/css?family=Sarabun&quot; face=&quot;Sarabun&quot;&gt;ฟังก์ชัน/โมดูล&lt;/font&gt;" style="shape=process;whiteSpace=wrap;html=1;backgroundOutline=1;" vertex="1" parent="y2gwotJgyjSCMUtLcQ7J-61">
          <mxGeometry x="25" y="180" width="120" height="30" as="geometry" />
        </mxCell>
        <mxCell id="y2gwotJgyjSCMUtLcQ7J-76" value="" style="endArrow=classic;html=1;rounded=0;" edge="1" parent="y2gwotJgyjSCMUtLcQ7J-61">
          <mxGeometry width="50" height="50" relative="1" as="geometry">
            <mxPoint x="84.70999999999998" y="150" as="sourcePoint" />
            <mxPoint x="85.20999999999998" y="180" as="targetPoint" />
          </mxGeometry>
        </mxCell>
        <mxCell id="y2gwotJgyjSCMUtLcQ7J-77" value="" style="endArrow=classic;html=1;rounded=0;" edge="1" parent="y2gwotJgyjSCMUtLcQ7J-61">
          <mxGeometry width="50" height="50" relative="1" as="geometry">
            <mxPoint x="84.70999999999998" y="210" as="sourcePoint" />
            <mxPoint x="85.20999999999998" y="240" as="targetPoint" />
          </mxGeometry>
        </mxCell>
        <mxCell id="y2gwotJgyjSCMUtLcQ7J-78" value="" style="strokeWidth=2;html=1;shape=mxgraph.flowchart.start_2;whiteSpace=wrap;" vertex="1" parent="y2gwotJgyjSCMUtLcQ7J-61">
          <mxGeometry x="205" y="185" width="20" height="20" as="geometry" />
        </mxCell>
        <mxCell id="y2gwotJgyjSCMUtLcQ7J-79" value="" style="endArrow=classic;html=1;rounded=0;" edge="1" parent="y2gwotJgyjSCMUtLcQ7J-61">
          <mxGeometry width="50" height="50" relative="1" as="geometry">
            <mxPoint x="214.70999999999998" y="155" as="sourcePoint" />
            <mxPoint x="215.20999999999998" y="185" as="targetPoint" />
          </mxGeometry>
        </mxCell>
        <mxCell id="y2gwotJgyjSCMUtLcQ7J-80" value="" style="endArrow=classic;html=1;rounded=0;entryX=0;entryY=0.5;entryDx=0;entryDy=0;entryPerimeter=0;" edge="1" parent="y2gwotJgyjSCMUtLcQ7J-61" target="y2gwotJgyjSCMUtLcQ7J-78">
          <mxGeometry width="50" height="50" relative="1" as="geometry">
            <mxPoint x="189.99999999999997" y="155" as="sourcePoint" />
            <mxPoint x="190.49999999999997" y="185" as="targetPoint" />
            <Array as="points">
              <mxPoint x="190" y="180" />
            </Array>
          </mxGeometry>
        </mxCell>
        <mxCell id="y2gwotJgyjSCMUtLcQ7J-81" value="" style="endArrow=classic;html=1;rounded=0;entryX=1;entryY=0.5;entryDx=0;entryDy=0;entryPerimeter=0;" edge="1" parent="y2gwotJgyjSCMUtLcQ7J-61" target="y2gwotJgyjSCMUtLcQ7J-78">
          <mxGeometry width="50" height="50" relative="1" as="geometry">
            <mxPoint x="239.99999999999997" y="155" as="sourcePoint" />
            <mxPoint x="240.49999999999997" y="185" as="targetPoint" />
            <Array as="points">
              <mxPoint x="240" y="180" />
            </Array>
          </mxGeometry>
        </mxCell>
        <mxCell id="y2gwotJgyjSCMUtLcQ7J-82" value="" style="endArrow=classic;html=1;rounded=0;" edge="1" parent="y2gwotJgyjSCMUtLcQ7J-61">
          <mxGeometry width="50" height="50" relative="1" as="geometry">
            <mxPoint x="214.70999999999998" y="205" as="sourcePoint" />
            <mxPoint x="215.20999999999998" y="235" as="targetPoint" />
          </mxGeometry>
        </mxCell>
        <mxCell id="y2gwotJgyjSCMUtLcQ7J-83" value="&lt;font data-font-src=&quot;https://fonts.googleapis.com/css?family=Sarabun&quot; face=&quot;Sarabun&quot;&gt;ตัวเชื่อม&lt;/font&gt;" style="text;html=1;align=center;verticalAlign=middle;resizable=0;points=[];autosize=1;strokeColor=none;fillColor=none;" vertex="1" parent="y2gwotJgyjSCMUtLcQ7J-61">
          <mxGeometry x="220" y="190" width="60" height="30" as="geometry" />
        </mxCell>
        <mxCell id="y2gwotJgyjSCMUtLcQ7J-84" value="" style="endArrow=classic;html=1;rounded=0;" edge="1" parent="y2gwotJgyjSCMUtLcQ7J-61">
          <mxGeometry width="50" height="50" relative="1" as="geometry">
            <mxPoint x="353.71" y="165" as="sourcePoint" />
            <mxPoint x="354.21" y="195" as="targetPoint" />
          </mxGeometry>
        </mxCell>
        <mxCell id="y2gwotJgyjSCMUtLcQ7J-85" value="" style="verticalLabelPosition=bottom;verticalAlign=top;html=1;shape=offPageConnector;rounded=0;size=0.5;" vertex="1" parent="y2gwotJgyjSCMUtLcQ7J-61">
          <mxGeometry x="339" y="195" width="30" height="30" as="geometry" />
        </mxCell>
        <mxCell id="y2gwotJgyjSCMUtLcQ7J-86" value="" style="endArrow=classic;html=1;rounded=0;" edge="1" parent="y2gwotJgyjSCMUtLcQ7J-61">
          <mxGeometry width="50" height="50" relative="1" as="geometry">
            <mxPoint x="405.71" y="195" as="sourcePoint" />
            <mxPoint x="406.21" y="225" as="targetPoint" />
          </mxGeometry>
        </mxCell>
        <mxCell id="y2gwotJgyjSCMUtLcQ7J-87" value="" style="verticalLabelPosition=bottom;verticalAlign=top;html=1;shape=offPageConnector;rounded=0;size=0.5;" vertex="1" parent="y2gwotJgyjSCMUtLcQ7J-61">
          <mxGeometry x="391" y="165" width="30" height="30" as="geometry" />
        </mxCell>
        <mxCell id="y2gwotJgyjSCMUtLcQ7J-88" value="หน้าต่อไป" style="text;html=1;align=center;verticalAlign=middle;resizable=0;points=[];autosize=1;strokeColor=none;fillColor=none;fontFamily=Sarabun;fontSource=https%3A%2F%2Ffonts.googleapis.com%2Fcss%3Ffamily%3DSarabun;" vertex="1" parent="y2gwotJgyjSCMUtLcQ7J-61">
          <mxGeometry x="345" y="220" width="70" height="30" as="geometry" />
        </mxCell>
        <mxCell id="y2gwotJgyjSCMUtLcQ7J-89" value="ก" style="text;html=1;align=center;verticalAlign=middle;resizable=0;points=[];autosize=1;strokeColor=none;fillColor=none;fontFamily=Sarabun;fontSource=https%3A%2F%2Ffonts.googleapis.com%2Fcss%3Ffamily%3DSarabun;" vertex="1" parent="y2gwotJgyjSCMUtLcQ7J-61">
          <mxGeometry x="339" y="190" width="30" height="30" as="geometry" />
        </mxCell>
        <mxCell id="y2gwotJgyjSCMUtLcQ7J-90" value="ก" style="text;html=1;align=center;verticalAlign=middle;resizable=0;points=[];autosize=1;strokeColor=none;fillColor=none;fontFamily=Sarabun;fontSource=https%3A%2F%2Ffonts.googleapis.com%2Fcss%3Ffamily%3DSarabun;" vertex="1" parent="y2gwotJgyjSCMUtLcQ7J-61">
          <mxGeometry x="391" y="160" width="30" height="30" as="geometry" />
        </mxCell>
        <mxCell id="y2gwotJgyjSCMUtLcQ7J-91" value="แสดงผล/รับค่า" style="shape=parallelogram;perimeter=parallelogramPerimeter;whiteSpace=wrap;html=1;fixedSize=1;fontFamily=Sarabun;fontSource=https%3A%2F%2Ffonts.googleapis.com%2Fcss%3Ffamily%3DSarabun;" vertex="1" parent="y2gwotJgyjSCMUtLcQ7J-61">
          <mxGeometry x="450" y="210" width="120" height="30" as="geometry" />
        </mxCell>
        <mxCell id="y2gwotJgyjSCMUtLcQ7J-92" value="" style="endArrow=classic;html=1;rounded=0;" edge="1" parent="y2gwotJgyjSCMUtLcQ7J-61">
          <mxGeometry width="50" height="50" relative="1" as="geometry">
            <mxPoint x="509.71" y="180" as="sourcePoint" />
            <mxPoint x="510.21" y="210" as="targetPoint" />
          </mxGeometry>
        </mxCell>
        <mxCell id="y2gwotJgyjSCMUtLcQ7J-93" value="" style="endArrow=classic;html=1;rounded=0;" edge="1" parent="y2gwotJgyjSCMUtLcQ7J-61">
          <mxGeometry width="50" height="50" relative="1" as="geometry">
            <mxPoint x="509.71" y="240" as="sourcePoint" />
            <mxPoint x="510.21" y="270" as="targetPoint" />
          </mxGeometry>
        </mxCell>
        <mxCell id="y2gwotJgyjSCMUtLcQ7J-94" value="แก้ไขโจทย์ปัญหา" style="swimlane;fontFamily=Sarabun;fontSource=https%3A%2F%2Ffonts.googleapis.com%2Fcss%3Ffamily%3DSarabun;" vertex="1" parent="1">
          <mxGeometry x="20" y="700" width="390" height="1390" as="geometry" />
        </mxCell>
        <mxCell id="y2gwotJgyjSCMUtLcQ7J-95" value="&lt;font data-font-src=&quot;https://fonts.googleapis.com/css?family=Sarabun&quot; face=&quot;Sarabun&quot;&gt;เริ่มต้น&lt;/font&gt;" style="ellipse;whiteSpace=wrap;html=1;" vertex="1" parent="y2gwotJgyjSCMUtLcQ7J-94">
          <mxGeometry x="135" y="40" width="130" height="30" as="geometry" />
        </mxCell>
        <mxCell id="y2gwotJgyjSCMUtLcQ7J-96" value="" style="endArrow=classic;html=1;rounded=0;" edge="1" parent="y2gwotJgyjSCMUtLcQ7J-94">
          <mxGeometry width="50" height="50" relative="1" as="geometry">
            <mxPoint x="199.40999999999997" y="70" as="sourcePoint" />
            <mxPoint x="199.40999999999997" y="120" as="targetPoint" />
          </mxGeometry>
        </mxCell>
        <mxCell id="y2gwotJgyjSCMUtLcQ7J-121" value="ลูกค้าเข้าใช้งาน" style="rounded=0;whiteSpace=wrap;html=1;" vertex="1" parent="y2gwotJgyjSCMUtLcQ7J-94">
          <mxGeometry x="140" y="120" width="120" height="30" as="geometry" />
        </mxCell>
        <mxCell id="y2gwotJgyjSCMUtLcQ7J-134" value="ตรวจสอบสินค้า" style="shape=process;whiteSpace=wrap;html=1;backgroundOutline=1;" vertex="1" parent="y2gwotJgyjSCMUtLcQ7J-94">
          <mxGeometry x="140" y="190" width="120" height="40" as="geometry" />
        </mxCell>
        <mxCell id="y2gwotJgyjSCMUtLcQ7J-138" value="คำนวณราคารวมทั้งหมด" style="rounded=0;whiteSpace=wrap;html=1;" vertex="1" parent="y2gwotJgyjSCMUtLcQ7J-94">
          <mxGeometry x="140" y="560" width="120" height="30" as="geometry" />
        </mxCell>
        <mxCell id="y2gwotJgyjSCMUtLcQ7J-123" value="แสดงสินค้าที่เหลืออยู่" style="rounded=0;whiteSpace=wrap;html=1;" vertex="1" parent="y2gwotJgyjSCMUtLcQ7J-94">
          <mxGeometry x="140" y="270" width="120" height="30" as="geometry" />
        </mxCell>
        <mxCell id="y2gwotJgyjSCMUtLcQ7J-132" value="ลูกค้าเลือกสินค้าประเภทน้ำ" style="rounded=0;whiteSpace=wrap;html=1;" vertex="1" parent="y2gwotJgyjSCMUtLcQ7J-94">
          <mxGeometry x="40" y="420" width="100" height="30" as="geometry" />
        </mxCell>
        <mxCell id="y2gwotJgyjSCMUtLcQ7J-133" value="ลูกค้าเลือกสินค้าประเภทขนม" style="rounded=0;whiteSpace=wrap;html=1;" vertex="1" parent="y2gwotJgyjSCMUtLcQ7J-94">
          <mxGeometry x="257.5" y="420" width="100" height="30" as="geometry" />
        </mxCell>
        <mxCell id="y2gwotJgyjSCMUtLcQ7J-131" value="" style="endArrow=classic;html=1;rounded=0;exitX=1;exitY=0.5;exitDx=0;exitDy=0;entryX=0.5;entryY=0;entryDx=0;entryDy=0;" edge="1" parent="y2gwotJgyjSCMUtLcQ7J-94">
          <mxGeometry width="50" height="50" relative="1" as="geometry">
            <mxPoint x="260" y="355" as="sourcePoint" />
            <mxPoint x="310" y="420" as="targetPoint" />
            <Array as="points">
              <mxPoint x="310" y="355" />
            </Array>
          </mxGeometry>
        </mxCell>
        <mxCell id="y2gwotJgyjSCMUtLcQ7J-139" value="" style="ellipse;whiteSpace=wrap;html=1;aspect=fixed;" vertex="1" parent="y2gwotJgyjSCMUtLcQ7J-94">
          <mxGeometry x="190" y="500" width="20" height="20" as="geometry" />
        </mxCell>
        <mxCell id="y2gwotJgyjSCMUtLcQ7J-136" value="" style="endArrow=classic;html=1;rounded=0;entryX=1;entryY=0.5;entryDx=0;entryDy=0;exitX=0.5;exitY=1;exitDx=0;exitDy=0;" edge="1" parent="y2gwotJgyjSCMUtLcQ7J-94" target="y2gwotJgyjSCMUtLcQ7J-139">
          <mxGeometry width="50" height="50" relative="1" as="geometry">
            <mxPoint x="310" y="450" as="sourcePoint" />
            <mxPoint x="180" y="420" as="targetPoint" />
            <Array as="points">
              <mxPoint x="310" y="510" />
            </Array>
          </mxGeometry>
        </mxCell>
        <mxCell id="y2gwotJgyjSCMUtLcQ7J-135" value="" style="endArrow=classic;html=1;rounded=0;entryX=0;entryY=0.5;entryDx=0;entryDy=0;exitX=0.5;exitY=1;exitDx=0;exitDy=0;" edge="1" parent="y2gwotJgyjSCMUtLcQ7J-94" target="y2gwotJgyjSCMUtLcQ7J-139">
          <mxGeometry width="50" height="50" relative="1" as="geometry">
            <mxPoint x="90" y="450" as="sourcePoint" />
            <mxPoint x="180" y="420" as="targetPoint" />
            <Array as="points">
              <mxPoint x="90" y="510" />
            </Array>
          </mxGeometry>
        </mxCell>
        <mxCell id="y2gwotJgyjSCMUtLcQ7J-124" value="" style="endArrow=classic;html=1;rounded=0;exitX=0.5;exitY=1;exitDx=0;exitDy=0;" edge="1" parent="y2gwotJgyjSCMUtLcQ7J-94" source="y2gwotJgyjSCMUtLcQ7J-123">
          <mxGeometry width="50" height="50" relative="1" as="geometry">
            <mxPoint x="110" y="440" as="sourcePoint" />
            <mxPoint x="200" y="340" as="targetPoint" />
          </mxGeometry>
        </mxCell>
        <mxCell id="y2gwotJgyjSCMUtLcQ7J-130" value="" style="endArrow=classic;html=1;rounded=0;exitX=0;exitY=0.5;exitDx=0;exitDy=0;" edge="1" parent="y2gwotJgyjSCMUtLcQ7J-94">
          <mxGeometry width="50" height="50" relative="1" as="geometry">
            <mxPoint x="140" y="355" as="sourcePoint" />
            <mxPoint x="90" y="420" as="targetPoint" />
            <Array as="points">
              <mxPoint x="90" y="355" />
            </Array>
          </mxGeometry>
        </mxCell>
        <mxCell id="y2gwotJgyjSCMUtLcQ7J-141" value="" style="endArrow=classic;html=1;rounded=0;entryX=0.5;entryY=0;entryDx=0;entryDy=0;exitX=0.5;exitY=1;exitDx=0;exitDy=0;" edge="1" parent="y2gwotJgyjSCMUtLcQ7J-94" source="y2gwotJgyjSCMUtLcQ7J-121" target="y2gwotJgyjSCMUtLcQ7J-134">
          <mxGeometry width="50" height="50" relative="1" as="geometry">
            <mxPoint x="130" y="260" as="sourcePoint" />
            <mxPoint x="180" y="210" as="targetPoint" />
          </mxGeometry>
        </mxCell>
        <mxCell id="y2gwotJgyjSCMUtLcQ7J-142" value="" style="endArrow=classic;html=1;rounded=0;entryX=0.5;entryY=0;entryDx=0;entryDy=0;exitX=0.5;exitY=1;exitDx=0;exitDy=0;" edge="1" parent="y2gwotJgyjSCMUtLcQ7J-94" source="y2gwotJgyjSCMUtLcQ7J-134" target="y2gwotJgyjSCMUtLcQ7J-123">
          <mxGeometry width="50" height="50" relative="1" as="geometry">
            <mxPoint x="130" y="470" as="sourcePoint" />
            <mxPoint x="180" y="420" as="targetPoint" />
          </mxGeometry>
        </mxCell>
        <mxCell id="y2gwotJgyjSCMUtLcQ7J-143" value="" style="endArrow=classic;html=1;rounded=0;exitX=0.5;exitY=1;exitDx=0;exitDy=0;entryX=0.5;entryY=0;entryDx=0;entryDy=0;" edge="1" parent="y2gwotJgyjSCMUtLcQ7J-94" source="y2gwotJgyjSCMUtLcQ7J-139" target="y2gwotJgyjSCMUtLcQ7J-138">
          <mxGeometry width="50" height="50" relative="1" as="geometry">
            <mxPoint x="440" y="470" as="sourcePoint" />
            <mxPoint x="490" y="420" as="targetPoint" />
          </mxGeometry>
        </mxCell>
        <mxCell id="y2gwotJgyjSCMUtLcQ7J-150" value="แสดงราคารวมสินค้า" style="rounded=0;whiteSpace=wrap;html=1;" vertex="1" parent="y2gwotJgyjSCMUtLcQ7J-94">
          <mxGeometry x="142.5" y="630" width="115" height="30" as="geometry" />
        </mxCell>
        <mxCell id="y2gwotJgyjSCMUtLcQ7J-151" value="" style="endArrow=classic;html=1;rounded=0;exitX=0.5;exitY=1;exitDx=0;exitDy=0;entryX=0.5;entryY=0;entryDx=0;entryDy=0;" edge="1" parent="y2gwotJgyjSCMUtLcQ7J-94" source="y2gwotJgyjSCMUtLcQ7J-138" target="y2gwotJgyjSCMUtLcQ7J-150">
          <mxGeometry width="50" height="50" relative="1" as="geometry">
            <mxPoint x="350" y="680" as="sourcePoint" />
            <mxPoint x="400" y="630" as="targetPoint" />
          </mxGeometry>
        </mxCell>
        <mxCell id="y2gwotJgyjSCMUtLcQ7J-152" value="" style="endArrow=classic;html=1;rounded=0;exitX=0.5;exitY=1;exitDx=0;exitDy=0;entryX=0.5;entryY=0;entryDx=0;entryDy=0;" edge="1" parent="y2gwotJgyjSCMUtLcQ7J-94" source="y2gwotJgyjSCMUtLcQ7J-150">
          <mxGeometry width="50" height="50" relative="1" as="geometry">
            <mxPoint x="350" y="750" as="sourcePoint" />
            <mxPoint x="200" y="700" as="targetPoint" />
          </mxGeometry>
        </mxCell>
        <mxCell id="y2gwotJgyjSCMUtLcQ7J-155" value="เลือกสินค้า" style="shape=process;whiteSpace=wrap;html=1;backgroundOutline=1;" vertex="1" parent="y2gwotJgyjSCMUtLcQ7J-94">
          <mxGeometry x="142.5" y="340" width="117.5" height="40" as="geometry" />
        </mxCell>
        <mxCell id="y2gwotJgyjSCMUtLcQ7J-156" value="เลือกวิธีจ่ายเงิน" style="rounded=0;whiteSpace=wrap;html=1;" vertex="1" parent="y2gwotJgyjSCMUtLcQ7J-94">
          <mxGeometry x="140" y="700" width="115" height="40" as="geometry" />
        </mxCell>
        <mxCell id="y2gwotJgyjSCMUtLcQ7J-161" value="สแกนQR" style="rounded=0;whiteSpace=wrap;html=1;" vertex="1" parent="y2gwotJgyjSCMUtLcQ7J-94">
          <mxGeometry x="52.5" y="780" width="90" height="30" as="geometry" />
        </mxCell>
        <mxCell id="y2gwotJgyjSCMUtLcQ7J-160" value="เงินสด" style="rounded=0;whiteSpace=wrap;html=1;" vertex="1" parent="y2gwotJgyjSCMUtLcQ7J-94">
          <mxGeometry x="155" y="780" width="85" height="30" as="geometry" />
        </mxCell>
        <mxCell id="y2gwotJgyjSCMUtLcQ7J-159" value="บัตรเคดิต" style="rounded=0;whiteSpace=wrap;html=1;" vertex="1" parent="y2gwotJgyjSCMUtLcQ7J-94">
          <mxGeometry x="255" y="780" width="85" height="30" as="geometry" />
        </mxCell>
        <mxCell id="y2gwotJgyjSCMUtLcQ7J-162" value="" style="endArrow=classic;html=1;rounded=0;exitX=1;exitY=0.5;exitDx=0;exitDy=0;entryX=0.5;entryY=0;entryDx=0;entryDy=0;" edge="1" parent="y2gwotJgyjSCMUtLcQ7J-94" source="y2gwotJgyjSCMUtLcQ7J-156" target="y2gwotJgyjSCMUtLcQ7J-159">
          <mxGeometry width="50" height="50" relative="1" as="geometry">
            <mxPoint x="350" y="800" as="sourcePoint" />
            <mxPoint x="400" y="750" as="targetPoint" />
            <Array as="points">
              <mxPoint x="298" y="720" />
            </Array>
          </mxGeometry>
        </mxCell>
        <mxCell id="y2gwotJgyjSCMUtLcQ7J-163" value="" style="endArrow=classic;html=1;rounded=0;exitX=0.5;exitY=1;exitDx=0;exitDy=0;entryX=0.5;entryY=0;entryDx=0;entryDy=0;" edge="1" parent="y2gwotJgyjSCMUtLcQ7J-94" source="y2gwotJgyjSCMUtLcQ7J-156" target="y2gwotJgyjSCMUtLcQ7J-160">
          <mxGeometry width="50" height="50" relative="1" as="geometry">
            <mxPoint x="350" y="800" as="sourcePoint" />
            <mxPoint x="400" y="750" as="targetPoint" />
          </mxGeometry>
        </mxCell>
        <mxCell id="y2gwotJgyjSCMUtLcQ7J-164" value="" style="endArrow=classic;html=1;rounded=0;entryX=0.5;entryY=0;entryDx=0;entryDy=0;exitX=0;exitY=0.5;exitDx=0;exitDy=0;" edge="1" parent="y2gwotJgyjSCMUtLcQ7J-94" source="y2gwotJgyjSCMUtLcQ7J-156" target="y2gwotJgyjSCMUtLcQ7J-161">
          <mxGeometry width="50" height="50" relative="1" as="geometry">
            <mxPoint x="350" y="800" as="sourcePoint" />
            <mxPoint x="400" y="750" as="targetPoint" />
            <Array as="points">
              <mxPoint x="98" y="720" />
            </Array>
          </mxGeometry>
        </mxCell>
        <mxCell id="y2gwotJgyjSCMUtLcQ7J-177" style="edgeStyle=orthogonalEdgeStyle;rounded=0;orthogonalLoop=1;jettySize=auto;html=1;exitX=0.5;exitY=1;exitDx=0;exitDy=0;entryX=0.5;entryY=0;entryDx=0;entryDy=0;" edge="1" parent="y2gwotJgyjSCMUtLcQ7J-94" source="y2gwotJgyjSCMUtLcQ7J-165" target="y2gwotJgyjSCMUtLcQ7J-176">
          <mxGeometry relative="1" as="geometry" />
        </mxCell>
        <mxCell id="y2gwotJgyjSCMUtLcQ7J-165" value="" style="ellipse;whiteSpace=wrap;html=1;aspect=fixed;" vertex="1" parent="y2gwotJgyjSCMUtLcQ7J-94">
          <mxGeometry x="182.5" y="860" width="30" height="30" as="geometry" />
        </mxCell>
        <mxCell id="y2gwotJgyjSCMUtLcQ7J-166" value="" style="endArrow=classic;html=1;rounded=0;exitX=0.5;exitY=1;exitDx=0;exitDy=0;entryX=1;entryY=0.5;entryDx=0;entryDy=0;" edge="1" parent="y2gwotJgyjSCMUtLcQ7J-94" source="y2gwotJgyjSCMUtLcQ7J-159" target="y2gwotJgyjSCMUtLcQ7J-165">
          <mxGeometry width="50" height="50" relative="1" as="geometry">
            <mxPoint x="340" y="850" as="sourcePoint" />
            <mxPoint x="390" y="800" as="targetPoint" />
          </mxGeometry>
        </mxCell>
        <mxCell id="y2gwotJgyjSCMUtLcQ7J-167" value="" style="endArrow=classic;html=1;rounded=0;exitX=0.5;exitY=1;exitDx=0;exitDy=0;entryX=0.5;entryY=0;entryDx=0;entryDy=0;" edge="1" parent="y2gwotJgyjSCMUtLcQ7J-94" source="y2gwotJgyjSCMUtLcQ7J-160" target="y2gwotJgyjSCMUtLcQ7J-165">
          <mxGeometry width="50" height="50" relative="1" as="geometry">
            <mxPoint x="340" y="850" as="sourcePoint" />
            <mxPoint x="390" y="800" as="targetPoint" />
          </mxGeometry>
        </mxCell>
        <mxCell id="y2gwotJgyjSCMUtLcQ7J-168" value="" style="endArrow=classic;html=1;rounded=0;exitX=0.5;exitY=1;exitDx=0;exitDy=0;entryX=0;entryY=0.5;entryDx=0;entryDy=0;" edge="1" parent="y2gwotJgyjSCMUtLcQ7J-94" source="y2gwotJgyjSCMUtLcQ7J-161" target="y2gwotJgyjSCMUtLcQ7J-165">
          <mxGeometry width="50" height="50" relative="1" as="geometry">
            <mxPoint x="340" y="850" as="sourcePoint" />
            <mxPoint x="390" y="800" as="targetPoint" />
          </mxGeometry>
        </mxCell>
        <mxCell id="y2gwotJgyjSCMUtLcQ7J-173" value="จ่ายสินค้าให้" style="rounded=0;whiteSpace=wrap;html=1;" vertex="1" parent="y2gwotJgyjSCMUtLcQ7J-94">
          <mxGeometry x="152.5" y="1240" width="85" height="30" as="geometry" />
        </mxCell>
        <mxCell id="y2gwotJgyjSCMUtLcQ7J-176" value="ลูกค้าจ่ายเงิน" style="rounded=0;whiteSpace=wrap;html=1;" vertex="1" parent="y2gwotJgyjSCMUtLcQ7J-94">
          <mxGeometry x="146.25" y="920" width="97.5" height="40" as="geometry" />
        </mxCell>
        <mxCell id="y2gwotJgyjSCMUtLcQ7J-180" value="ทอนเงิน" style="rounded=0;whiteSpace=wrap;html=1;" vertex="1" parent="y2gwotJgyjSCMUtLcQ7J-94">
          <mxGeometry x="262.5" y="1080" width="90" height="40" as="geometry" />
        </mxCell>
        <mxCell id="y2gwotJgyjSCMUtLcQ7J-181" value="เงินพอหรือไม่" style="rhombus;whiteSpace=wrap;html=1;" vertex="1" parent="y2gwotJgyjSCMUtLcQ7J-94">
          <mxGeometry x="155" y="1000" width="80" height="80" as="geometry" />
        </mxCell>
        <mxCell id="y2gwotJgyjSCMUtLcQ7J-182" value="" style="endArrow=classic;html=1;rounded=0;exitX=0.5;exitY=1;exitDx=0;exitDy=0;entryX=0.5;entryY=0;entryDx=0;entryDy=0;" edge="1" parent="y2gwotJgyjSCMUtLcQ7J-94" source="y2gwotJgyjSCMUtLcQ7J-176" target="y2gwotJgyjSCMUtLcQ7J-181">
          <mxGeometry width="50" height="50" relative="1" as="geometry">
            <mxPoint x="350" y="1040" as="sourcePoint" />
            <mxPoint x="400" y="990" as="targetPoint" />
          </mxGeometry>
        </mxCell>
        <mxCell id="y2gwotJgyjSCMUtLcQ7J-183" value="" style="endArrow=classic;html=1;rounded=0;exitX=1;exitY=0.5;exitDx=0;exitDy=0;entryX=0.5;entryY=0;entryDx=0;entryDy=0;" edge="1" parent="y2gwotJgyjSCMUtLcQ7J-94" source="y2gwotJgyjSCMUtLcQ7J-181" target="y2gwotJgyjSCMUtLcQ7J-180">
          <mxGeometry width="50" height="50" relative="1" as="geometry">
            <mxPoint x="340" y="1130" as="sourcePoint" />
            <mxPoint x="310" y="1060" as="targetPoint" />
            <Array as="points">
              <mxPoint x="308" y="1040" />
            </Array>
          </mxGeometry>
        </mxCell>
        <mxCell id="y2gwotJgyjSCMUtLcQ7J-185" value="" style="ellipse;whiteSpace=wrap;html=1;aspect=fixed;" vertex="1" parent="y2gwotJgyjSCMUtLcQ7J-94">
          <mxGeometry x="180" y="1160" width="30" height="30" as="geometry" />
        </mxCell>
        <mxCell id="y2gwotJgyjSCMUtLcQ7J-186" value="" style="endArrow=classic;html=1;rounded=0;exitX=0.5;exitY=1;exitDx=0;exitDy=0;entryX=0.5;entryY=0;entryDx=0;entryDy=0;" edge="1" parent="y2gwotJgyjSCMUtLcQ7J-94" source="y2gwotJgyjSCMUtLcQ7J-185" target="y2gwotJgyjSCMUtLcQ7J-173">
          <mxGeometry width="50" height="50" relative="1" as="geometry">
            <mxPoint x="340" y="1190" as="sourcePoint" />
            <mxPoint x="390" y="1140" as="targetPoint" />
          </mxGeometry>
        </mxCell>
        <mxCell id="y2gwotJgyjSCMUtLcQ7J-187" value="" style="endArrow=classic;html=1;rounded=0;exitX=0.5;exitY=1;exitDx=0;exitDy=0;entryX=1;entryY=0.5;entryDx=0;entryDy=0;" edge="1" parent="y2gwotJgyjSCMUtLcQ7J-94" source="y2gwotJgyjSCMUtLcQ7J-180" target="y2gwotJgyjSCMUtLcQ7J-185">
          <mxGeometry width="50" height="50" relative="1" as="geometry">
            <mxPoint x="340" y="1190" as="sourcePoint" />
            <mxPoint x="390" y="1140" as="targetPoint" />
            <Array as="points">
              <mxPoint x="308" y="1170" />
            </Array>
          </mxGeometry>
        </mxCell>
        <mxCell id="y2gwotJgyjSCMUtLcQ7J-189" value="ใช่" style="text;html=1;align=center;verticalAlign=middle;whiteSpace=wrap;rounded=0;" vertex="1" parent="y2gwotJgyjSCMUtLcQ7J-94">
          <mxGeometry x="177.5" y="1090" width="60" height="30" as="geometry" />
        </mxCell>
        <mxCell id="y2gwotJgyjSCMUtLcQ7J-190" value="" style="endArrow=classic;html=1;rounded=0;exitX=0;exitY=0.5;exitDx=0;exitDy=0;entryX=0;entryY=0.5;entryDx=0;entryDy=0;" edge="1" parent="y2gwotJgyjSCMUtLcQ7J-94" source="y2gwotJgyjSCMUtLcQ7J-181" target="y2gwotJgyjSCMUtLcQ7J-176">
          <mxGeometry width="50" height="50" relative="1" as="geometry">
            <mxPoint x="340" y="1190" as="sourcePoint" />
            <mxPoint x="390" y="1140" as="targetPoint" />
            <Array as="points">
              <mxPoint x="100" y="1040" />
              <mxPoint x="110" y="940" />
            </Array>
          </mxGeometry>
        </mxCell>
        <mxCell id="y2gwotJgyjSCMUtLcQ7J-192" value="สิ้นสุด" style="ellipse;whiteSpace=wrap;html=1;" vertex="1" parent="y2gwotJgyjSCMUtLcQ7J-94">
          <mxGeometry x="135" y="1300" width="125" height="50" as="geometry" />
        </mxCell>
        <mxCell id="y2gwotJgyjSCMUtLcQ7J-191" value="" style="endArrow=classic;html=1;rounded=0;exitX=0.5;exitY=1;exitDx=0;exitDy=0;" edge="1" parent="y2gwotJgyjSCMUtLcQ7J-94" source="y2gwotJgyjSCMUtLcQ7J-173" target="y2gwotJgyjSCMUtLcQ7J-192">
          <mxGeometry width="50" height="50" relative="1" as="geometry">
            <mxPoint x="340" y="1220" as="sourcePoint" />
            <mxPoint x="390" y="1170" as="targetPoint" />
          </mxGeometry>
        </mxCell>
        <mxCell id="y2gwotJgyjSCMUtLcQ7J-116" value="&lt;font data-font-src=&quot;https://fonts.googleapis.com/css?family=Sarabun&quot; face=&quot;Sarabun&quot;&gt;โจทย์ปัญหา&lt;/font&gt;" style="swimlane;whiteSpace=wrap;html=1;" vertex="1" parent="1">
          <mxGeometry x="210" y="360" width="640" height="240" as="geometry" />
        </mxCell>
        <mxCell id="y2gwotJgyjSCMUtLcQ7J-117" value="&lt;font data-font-src=&quot;https://fonts.googleapis.com/css?family=Sarabun&quot; face=&quot;Sarabun&quot; style=&quot;font-size: 14px;&quot;&gt;จงเขียน Flowchart เพื่อแสดงขั้นตอนการทำงาน ของเครื่องขายน้ำอัตโนมัติที่ชื่อว่า &quot;ตะพาบลอย&quot;&lt;br&gt;โดยจะต้องมีสินค้าดังนี้&lt;br&gt;&lt;u&gt;ประเภทน้ำ&lt;span style=&quot;white-space: pre;&quot;&gt;&#x9;&lt;/span&gt;&lt;span style=&quot;white-space: pre;&quot;&gt;&#x9;&lt;/span&gt;&lt;span style=&quot;white-space: pre;&quot;&gt;&#x9;&lt;/span&gt;&lt;span style=&quot;white-space: pre;&quot;&gt;&#x9;&lt;/span&gt;&lt;span style=&quot;white-space: pre;&quot;&gt;&#x9;&lt;/span&gt;&lt;span style=&quot;white-space: pre;&quot;&gt;&#x9;&lt;span style=&quot;white-space: pre;&quot;&gt;&#x9;&lt;/span&gt;ข&lt;/span&gt;นม&lt;/u&gt;&lt;br&gt;&lt;span style=&quot;white-space: pre;&quot;&gt;&#x9;&lt;/span&gt;- โค้ก กระป๋องละ 10 บาท&lt;span style=&quot;white-space: pre;&quot;&gt;&#x9;&lt;/span&gt;&lt;span style=&quot;white-space: pre;&quot;&gt;&#x9;&lt;/span&gt;&lt;span style=&quot;white-space: pre;&quot;&gt;&#x9;&lt;/span&gt;&lt;span style=&quot;white-space: pre;&quot;&gt;&#x9;&lt;/span&gt;- เมล็ดทานตะวัน 13 บาท&lt;br&gt;&lt;span style=&quot;white-space: pre;&quot;&gt;&#x9;&lt;/span&gt;- น้ำเขียว กระป๋องละ 12 บาท&lt;span style=&quot;white-space: pre;&quot;&gt;&#x9;&lt;/span&gt;&lt;span style=&quot;white-space: pre;&quot;&gt;&#x9;&lt;/span&gt;&lt;span style=&quot;white-space: pre;&quot;&gt;&#x9;&lt;/span&gt;- ถั่วแปบ 20 บาท&lt;br&gt;&lt;span style=&quot;white-space: pre;&quot;&gt;&#x9;&lt;/span&gt;- อเมริกาโน่ 30 บาท&lt;span style=&quot;white-space: pre;&quot;&gt;&#x9;&lt;/span&gt;&lt;span style=&quot;white-space: pre;&quot;&gt;&#x9;&lt;/span&gt;&lt;span style=&quot;white-space: pre;&quot;&gt;&#x9;&lt;/span&gt;&lt;span style=&quot;white-space: pre;&quot;&gt;&#x9;&lt;/span&gt;&lt;span style=&quot;white-space: pre;&quot;&gt;&#x9;&lt;/span&gt;- จิ้นส้มหมก 15 บาท&lt;br&gt;&lt;span style=&quot;white-space: pre;&quot;&gt;&#x9;&lt;/span&gt;- ลาเต้ หวานเจี๊ยบ 35 บาท&lt;span style=&quot;white-space: pre;&quot;&gt;&#x9;&lt;/span&gt;&lt;br&gt;&lt;br&gt;&lt;u&gt;สิ่งที่ระบบควรจะทำได้&lt;/u&gt;&lt;br&gt;&lt;span style=&quot;white-space: pre;&quot;&gt;&#x9;&lt;/span&gt;- ลูกค้าเลือกสินค้า, ระบบจะต้องรวมยอดขาย และรวมรายการสินค้าทั้งหมดที่ลูกค้าเลือก&lt;br&gt;&lt;span style=&quot;white-space: pre;&quot;&gt;&#x9;&lt;/span&gt;- สรุปยอดว่าเหลือเงินในตู้อีกเท่าไหร่ เหลือเหรียญอะไรบ้าง? ธนบัตรอะไรบ้าง? อย่างละเท่าไหร่?&lt;br&gt;&lt;br&gt;&lt;br&gt;&lt;/font&gt;" style="text;html=1;align=left;verticalAlign=middle;resizable=0;points=[];autosize=1;strokeColor=none;fillColor=none;fontSize=14;" vertex="1" parent="y2gwotJgyjSCMUtLcQ7J-116">
          <mxGeometry x="25" y="30" width="580" height="240" as="geometry" />
        </mxCell>
        <mxCell id="y2gwotJgyjSCMUtLcQ7J-144" value="Vertical Container" style="swimlane;whiteSpace=wrap;html=1;" vertex="1" parent="1">
          <mxGeometry x="470" y="680" width="340" height="880" as="geometry" />
        </mxCell>
        <mxCell id="y2gwotJgyjSCMUtLcQ7J-184" value="" style="endArrow=classic;html=1;rounded=0;exitX=0.5;exitY=1;exitDx=0;exitDy=0;" edge="1" parent="1" source="y2gwotJgyjSCMUtLcQ7J-181">
          <mxGeometry width="50" height="50" relative="1" as="geometry">
            <mxPoint x="360" y="1830" as="sourcePoint" />
            <mxPoint x="215" y="1860" as="targetPoint" />
          </mxGeometry>
        </mxCell>
      </root>
    </mxGraphModel>
  </diagram>
</mxfile>
